<svg xmlns="http://www.w3.org/2000/svg" xmlns:xlink="http://www.w3.org/1999/xlink" width="506" zoomAndPan="magnify" viewBox="0 0 379.5 308.250004" height="411" preserveAspectRatio="xMidYMid meet" version="1.0"><defs><clipPath id="44a49f14d8"><path d="M 228 192 L 310.1875 192 L 310.1875 274.390625 L 228 274.390625 Z M 228 192 " clip-rule="nonzero"/></clipPath><clipPath id="1b14a5d6c9"><path d="M 68.957031 33.160156 L 249 33.160156 L 249 213 L 68.957031 213 Z M 68.957031 33.160156 " clip-rule="nonzero"/></clipPath></defs><path fill="#5d6d7e" d="M 213.203125 191.257812 L 219.132812 197.1875 L 226.0625 204.082031 L 228.734375 206.773438 L 242.5625 192.933594 L 227.058594 177.40625 Z M 213.203125 191.257812 " fill-opacity="1" fill-rule="nonzero"/><g clip-path="url(#44a49f14d8)"><path fill="#ff8e31" d="M 256.664062 192.84375 L 304.382812 240.558594 C 307.972656 244.140625 310.203125 249.109375 310.1875 254.574219 C 310.1875 260.050781 307.972656 265.015625 304.382812 268.609375 C 300.804688 272.183594 295.847656 274.390625 290.371094 274.390625 C 284.898438 274.390625 279.949219 272.183594 276.359375 268.597656 L 228.640625 220.875 Z M 256.664062 192.84375 " fill-opacity="1" fill-rule="nonzero"/></g><path fill="#fece59" d="M 250.078125 199.4375 L 253.957031 195.550781 L 301.679688 243.277344 C 304.695312 246.292969 306.351562 250.304688 306.347656 254.570312 C 306.347656 258.851562 304.6875 262.871094 301.679688 265.890625 C 301.132812 266.417969 300.429688 266.683594 299.738281 266.683594 C 299.027344 266.683594 298.332031 266.417969 297.785156 265.882812 C 296.722656 264.804688 296.722656 263.082031 297.785156 262.011719 C 299.777344 260.03125 300.863281 257.375 300.863281 254.566406 C 300.871094 251.769531 299.777344 249.132812 297.800781 247.15625 Z M 250.078125 199.4375 " fill-opacity="1" fill-rule="nonzero"/><path fill="#34495e" d="M 228.636719 220.875 L 256.664062 192.839844 L 254.574219 190.746094 C 253.3125 189.476562 251.585938 188.707031 249.667969 188.707031 C 247.738281 188.707031 246.011719 189.476562 244.761719 190.734375 L 226.535156 208.96875 C 225.285156 210.210938 224.5 211.941406 224.5 213.875 C 224.5 215.777344 225.28125 217.527344 226.535156 218.765625 Z M 228.636719 220.875 " fill-opacity="1" fill-rule="nonzero"/><g clip-path="url(#1b14a5d6c9)"><path fill="#34495e" d="M 68.957031 122.753906 C 68.957031 73.28125 109.070312 33.160156 158.554688 33.160156 C 208.042969 33.160156 248.15625 73.285156 248.15625 122.753906 C 248.15625 172.242188 208.039062 212.355469 158.554688 212.367188 C 109.070312 212.355469 68.957031 172.242188 68.957031 122.753906 Z M 68.957031 122.753906 " fill-opacity="1" fill-rule="nonzero"/></g><path fill="#5d6d7e" d="M 158.554688 202.660156 C 202.671875 202.660156 238.453125 166.890625 238.453125 122.753906 C 238.453125 78.640625 202.671875 42.863281 158.554688 42.863281 C 114.429688 42.863281 78.652344 78.640625 78.652344 122.753906 C 78.652344 166.890625 114.429688 202.660156 158.554688 202.660156 Z M 158.554688 202.660156 " fill-opacity="1" fill-rule="nonzero"/><path fill="#cee2f2" d="M 158.554688 196.265625 C 199.144531 196.265625 232.058594 163.363281 232.058594 122.753906 C 232.058594 82.175781 199.140625 49.253906 158.554688 49.253906 C 117.96875 49.253906 85.046875 82.175781 85.046875 122.753906 C 85.046875 163.363281 117.960938 196.265625 158.554688 196.265625 Z M 158.554688 196.265625 " fill-opacity="1" fill-rule="nonzero"/><path fill="#ffffff" d="M 160.488281 61.320312 C 159.238281 59.464844 157.085938 58.300781 154.71875 58.4375 C 144.570312 59.054688 134.980469 61.910156 126.21875 67 C 123.132812 68.800781 122.078125 72.777344 123.875 75.878906 C 125.671875 78.941406 129.652344 80.03125 132.726562 78.207031 C 139.71875 74.175781 147.367188 71.886719 155.476562 71.390625 C 159.042969 71.207031 161.78125 68.132812 161.5625 64.570312 C 161.519531 63.335938 161.105469 62.226562 160.488281 61.320312 Z M 160.488281 61.320312 " fill-opacity="1" fill-rule="nonzero"/><path fill="#ffffff" d="M 118.871094 82.632812 C 118.523438 82.113281 118.074219 81.636719 117.582031 81.226562 C 114.800781 78.949219 110.71875 79.390625 108.46875 82.171875 C 101.847656 90.300781 97.289062 100.054688 95.277344 110.433594 C 92.898438 122.761719 94.144531 135.386719 98.871094 146.953125 C 100.25 150.285156 104.039062 151.851562 107.347656 150.488281 C 110.664062 149.144531 112.246094 145.367188 110.886719 142.03125 C 107.117188 132.808594 106.140625 122.738281 108.054688 112.898438 C 109.617188 104.609375 113.257812 96.832031 118.539062 90.34375 C 120.378906 88.085938 120.425781 84.914062 118.871094 82.632812 Z M 118.871094 82.632812 " fill-opacity="1" fill-rule="nonzero"/></svg>