<svg xmlns="http://www.w3.org/2000/svg" xmlns:xlink="http://www.w3.org/1999/xlink" width="506" zoomAndPan="magnify" viewBox="0 0 379.5 308.250004" height="411" preserveAspectRatio="xMidYMid meet" version="1.0"><defs><clipPath id="7154cb1fcd"><path d="M 234 198 L 328.382812 198 L 328.382812 292.585938 L 234 292.585938 Z M 234 198 " clip-rule="nonzero"/></clipPath><clipPath id="6462ee7311"><path d="M 51.191406 15.394531 L 258 15.394531 L 258 222 L 51.191406 222 Z M 51.191406 15.394531 " clip-rule="nonzero"/></clipPath></defs><path fill="#5d6d7e" d="M 216.945312 197.0625 L 223.753906 203.875 L 231.71875 211.796875 L 234.789062 214.886719 L 250.679688 198.988281 L 232.863281 181.144531 Z M 216.945312 197.0625 " fill-opacity="1" fill-rule="nonzero"/><g clip-path="url(#7154cb1fcd)"><path fill="#ff8e31" d="M 266.882812 198.882812 L 321.714844 253.714844 C 325.839844 257.828125 328.398438 263.535156 328.382812 269.816406 C 328.382812 276.109375 325.839844 281.8125 321.714844 285.941406 C 317.601562 290.050781 311.90625 292.585938 305.613281 292.585938 C 299.328125 292.585938 293.636719 290.050781 289.511719 285.929688 L 234.679688 231.089844 Z M 266.882812 198.882812 " fill-opacity="1" fill-rule="nonzero"/></g><path fill="#fece59" d="M 259.3125 206.460938 L 263.769531 201.996094 L 318.609375 256.835938 C 322.070312 260.300781 323.976562 264.910156 323.972656 269.8125 C 323.972656 274.734375 322.0625 279.347656 318.609375 282.820312 C 317.980469 283.425781 317.171875 283.730469 316.375 283.730469 C 315.5625 283.730469 314.757812 283.425781 314.132812 282.8125 C 312.910156 281.574219 312.910156 279.59375 314.132812 278.363281 C 316.417969 276.085938 317.667969 273.035156 317.667969 269.804688 C 317.679688 266.589844 316.421875 263.5625 314.148438 261.292969 Z M 259.3125 206.460938 " fill-opacity="1" fill-rule="nonzero"/><path fill="#34495e" d="M 234.675781 231.089844 L 266.882812 198.878906 L 264.480469 196.472656 C 263.03125 195.015625 261.046875 194.132812 258.84375 194.132812 C 256.625 194.132812 254.640625 195.011719 253.203125 196.460938 L 232.261719 217.414062 C 230.824219 218.839844 229.925781 220.828125 229.925781 223.050781 C 229.925781 225.234375 230.820312 227.25 232.261719 228.667969 Z M 234.675781 231.089844 " fill-opacity="1" fill-rule="nonzero"/><g clip-path="url(#6462ee7311)"><path fill="#34495e" d="M 51.191406 118.347656 C 51.191406 61.496094 97.289062 15.398438 154.148438 15.398438 C 211.011719 15.398438 257.105469 61.5 257.105469 118.347656 C 257.105469 175.210938 211.007812 221.304688 154.148438 221.320312 C 97.289062 221.304688 51.191406 175.210938 51.191406 118.347656 Z M 51.191406 118.347656 " fill-opacity="1" fill-rule="nonzero"/></g><path fill="#5d6d7e" d="M 154.148438 210.164062 C 204.839844 210.164062 245.957031 169.0625 245.957031 118.34375 C 245.957031 67.660156 204.839844 26.542969 154.148438 26.542969 C 103.445312 26.546875 62.335938 67.65625 62.335938 118.347656 C 62.335938 169.0625 103.445312 210.164062 154.148438 210.164062 Z M 154.148438 210.164062 " fill-opacity="1" fill-rule="nonzero"/><path fill="#cee2f2" d="M 154.148438 202.816406 C 200.785156 202.816406 238.609375 165.007812 238.609375 118.347656 C 238.609375 71.71875 200.785156 33.890625 154.148438 33.890625 C 107.511719 33.890625 69.683594 71.71875 69.683594 118.347656 C 69.683594 165.007812 107.5 202.816406 154.148438 202.816406 Z M 154.148438 202.816406 " fill-opacity="1" fill-rule="nonzero"/><path fill="#ffffff" d="M 156.371094 47.757812 C 154.929688 45.621094 152.457031 44.285156 149.738281 44.441406 C 138.078125 45.148438 127.058594 48.433594 116.992188 54.277344 C 113.445312 56.351562 112.230469 60.921875 114.296875 64.484375 C 116.359375 68 120.9375 69.253906 124.46875 67.160156 C 132.5 62.527344 141.292969 59.894531 150.613281 59.324219 C 154.707031 59.113281 157.855469 55.582031 157.601562 51.488281 C 157.554688 50.070312 157.078125 48.796875 156.371094 47.757812 Z M 156.371094 47.757812 " fill-opacity="1" fill-rule="nonzero"/><path fill="#ffffff" d="M 108.546875 72.242188 C 108.152344 71.648438 107.632812 71.097656 107.066406 70.628906 C 103.871094 68.011719 99.179688 68.519531 96.597656 71.714844 C 88.988281 81.054688 83.75 92.261719 81.4375 104.191406 C 78.703125 118.355469 80.136719 132.859375 85.566406 146.152344 C 87.148438 149.980469 91.507812 151.78125 95.308594 150.214844 C 99.117188 148.671875 100.933594 144.328125 99.375 140.5 C 95.042969 129.898438 93.917969 118.324219 96.117188 107.019531 C 97.917969 97.496094 102.097656 88.558594 108.167969 81.105469 C 110.28125 78.507812 110.335938 74.867188 108.546875 72.242188 Z M 108.546875 72.242188 " fill-opacity="1" fill-rule="nonzero"/></svg>