<svg xmlns="http://www.w3.org/2000/svg" xmlns:xlink="http://www.w3.org/1999/xlink" width="506" zoomAndPan="magnify" viewBox="0 0 379.5 308.250004" height="411" preserveAspectRatio="xMidYMid meet" version="1.0"><defs><clipPath id="376c720369"><path d="M 124.609375 112.855469 L 157.488281 112.855469 L 157.488281 145.734375 L 124.609375 145.734375 Z M 124.609375 112.855469 " clip-rule="nonzero"/></clipPath><clipPath id="f85ad472bc"><path d="M 141.050781 112.855469 C 131.96875 112.855469 124.609375 120.214844 124.609375 129.292969 C 124.609375 138.375 131.96875 145.734375 141.050781 145.734375 C 150.128906 145.734375 157.488281 138.375 157.488281 129.292969 C 157.488281 120.214844 150.128906 112.855469 141.050781 112.855469 " clip-rule="nonzero"/></clipPath><clipPath id="6eb3dcc52d"><path d="M 230.722656 112.855469 L 263.601562 112.855469 L 263.601562 145.734375 L 230.722656 145.734375 Z M 230.722656 112.855469 " clip-rule="nonzero"/></clipPath><clipPath id="f5b25c0bc9"><path d="M 247.164062 112.855469 C 238.082031 112.855469 230.722656 120.214844 230.722656 129.292969 C 230.722656 138.375 238.082031 145.734375 247.164062 145.734375 C 256.242188 145.734375 263.601562 138.375 263.601562 129.292969 C 263.601562 120.214844 256.242188 112.855469 247.164062 112.855469 " clip-rule="nonzero"/></clipPath><clipPath id="6d8d201c7b"><path d="M 177.5625 112.855469 L 210.445312 112.855469 L 210.445312 145.734375 L 177.5625 145.734375 Z M 177.5625 112.855469 " clip-rule="nonzero"/></clipPath><clipPath id="9fe082b333"><path d="M 194.003906 112.855469 C 184.925781 112.855469 177.5625 120.214844 177.5625 129.292969 C 177.5625 138.375 184.925781 145.734375 194.003906 145.734375 C 203.082031 145.734375 210.445312 138.375 210.445312 129.292969 C 210.445312 120.214844 203.082031 112.855469 194.003906 112.855469 " clip-rule="nonzero"/></clipPath></defs><path fill="#0cc0df" d="M 316.9375 154.148438 C 316.921875 153.359375 316.898438 152.570312 316.867188 151.78125 C 314.710938 98.152344 266.433594 59.558594 217.714844 50.957031 C 150.863281 39.160156 62.082031 83.3125 77.628906 162.019531 C 85.957031 204.160156 115.839844 242.363281 158.15625 254.0625 C 169.824219 257.289062 183.003906 259.371094 195.128906 259.371094 C 220.492188 259.371094 240.503906 246.191406 263.828125 263.027344 C 270.648438 267.949219 277.707031 285.230469 288.527344 281.425781 C 296.4375 278.640625 298.09375 262.621094 298.628906 255.941406 C 301.382812 221.648438 317.546875 188.671875 316.9375 154.148438 Z M 316.9375 154.148438 " fill-opacity="1" fill-rule="nonzero"/><path fill="#ede9e9" d="M 154.777344 154.667969 C 154.777344 155.695312 154.675781 156.707031 154.476562 157.710938 C 154.277344 158.714844 153.980469 159.691406 153.589844 160.636719 C 153.195312 161.582031 152.714844 162.480469 152.144531 163.332031 C 151.578125 164.183594 150.929688 164.972656 150.207031 165.695312 C 149.480469 166.421875 148.691406 167.066406 147.839844 167.636719 C 146.988281 168.203125 146.089844 168.683594 145.144531 169.078125 C 144.195312 169.46875 143.21875 169.765625 142.214844 169.964844 C 141.210938 170.164062 140.195312 170.265625 139.171875 170.265625 C 138.148438 170.265625 137.132812 170.164062 136.125 169.964844 C 135.121094 169.765625 134.144531 169.46875 133.199219 169.078125 C 132.253906 168.683594 131.355469 168.203125 130.5 167.636719 C 129.648438 167.066406 128.863281 166.421875 128.136719 165.695312 C 127.414062 164.972656 126.765625 164.183594 126.195312 163.332031 C 125.628906 162.480469 125.144531 161.582031 124.753906 160.636719 C 124.363281 159.691406 124.066406 158.714844 123.867188 157.710938 C 123.667969 156.707031 123.566406 155.695312 123.566406 154.667969 C 123.566406 153.644531 123.667969 152.632812 123.867188 151.628906 C 124.066406 150.621094 124.363281 149.648438 124.753906 148.703125 C 125.144531 147.753906 125.628906 146.855469 126.195312 146.003906 C 126.765625 145.152344 127.414062 144.367188 128.136719 143.640625 C 128.863281 142.917969 129.648438 142.273438 130.5 141.703125 C 131.355469 141.132812 132.253906 140.652344 133.199219 140.261719 C 134.144531 139.871094 135.121094 139.574219 136.125 139.375 C 137.132812 139.175781 138.148438 139.074219 139.171875 139.074219 C 140.195312 139.074219 141.210938 139.175781 142.214844 139.375 C 143.21875 139.574219 144.195312 139.871094 145.144531 140.261719 C 146.089844 140.652344 146.988281 141.132812 147.839844 141.703125 C 148.691406 142.273438 149.480469 142.917969 150.207031 143.640625 C 150.929688 144.367188 151.578125 145.152344 152.144531 146.003906 C 152.714844 146.855469 153.195312 147.753906 153.589844 148.703125 C 153.980469 149.648438 154.277344 150.621094 154.476562 151.628906 C 154.675781 152.632812 154.777344 153.644531 154.777344 154.667969 Z M 154.777344 154.667969 " fill-opacity="1" fill-rule="nonzero"/><path fill="#ede9e9" d="M 209.894531 154.667969 C 209.894531 155.695312 209.796875 156.707031 209.597656 157.710938 C 209.398438 158.714844 209.101562 159.691406 208.707031 160.636719 C 208.316406 161.582031 207.835938 162.480469 207.265625 163.332031 C 206.695312 164.183594 206.050781 164.972656 205.324219 165.695312 C 204.601562 166.421875 203.8125 167.066406 202.960938 167.636719 C 202.109375 168.203125 201.210938 168.683594 200.261719 169.078125 C 199.316406 169.46875 198.339844 169.765625 197.335938 169.964844 C 196.332031 170.164062 195.316406 170.265625 194.292969 170.265625 C 193.265625 170.265625 192.253906 170.164062 191.246094 169.964844 C 190.242188 169.765625 189.265625 169.46875 188.320312 169.078125 C 187.371094 168.683594 186.472656 168.203125 185.621094 167.636719 C 184.769531 167.066406 183.980469 166.421875 183.257812 165.695312 C 182.53125 164.972656 181.886719 164.183594 181.316406 163.332031 C 180.746094 162.480469 180.265625 161.582031 179.875 160.636719 C 179.480469 159.691406 179.1875 158.714844 178.988281 157.710938 C 178.785156 156.707031 178.6875 155.695312 178.6875 154.667969 C 178.6875 153.644531 178.785156 152.632812 178.988281 151.628906 C 179.1875 150.621094 179.480469 149.648438 179.875 148.703125 C 180.265625 147.753906 180.746094 146.855469 181.316406 146.003906 C 181.886719 145.152344 182.53125 144.367188 183.257812 143.640625 C 183.980469 142.917969 184.769531 142.273438 185.621094 141.703125 C 186.472656 141.132812 187.371094 140.652344 188.320312 140.261719 C 189.265625 139.871094 190.242188 139.574219 191.246094 139.375 C 192.253906 139.175781 193.265625 139.074219 194.292969 139.074219 C 195.316406 139.074219 196.332031 139.175781 197.335938 139.375 C 198.339844 139.574219 199.316406 139.871094 200.261719 140.261719 C 201.210938 140.652344 202.109375 141.132812 202.960938 141.703125 C 203.8125 142.273438 204.601562 142.917969 205.324219 143.640625 C 206.050781 144.367188 206.695312 145.152344 207.265625 146.003906 C 207.835938 146.855469 208.316406 147.753906 208.707031 148.703125 C 209.101562 149.648438 209.398438 150.621094 209.597656 151.628906 C 209.796875 152.632812 209.894531 153.644531 209.894531 154.667969 Z M 209.894531 154.667969 " fill-opacity="1" fill-rule="nonzero"/><path fill="#ede9e9" d="M 262.09375 154.667969 C 262.09375 155.695312 261.996094 156.707031 261.792969 157.710938 C 261.59375 158.714844 261.296875 159.691406 260.90625 160.636719 C 260.515625 161.582031 260.035156 162.480469 259.464844 163.332031 C 258.894531 164.183594 258.25 164.972656 257.523438 165.695312 C 256.800781 166.421875 256.011719 167.066406 255.160156 167.636719 C 254.308594 168.203125 253.40625 168.683594 252.460938 169.078125 C 251.515625 169.46875 250.539062 169.765625 249.535156 169.964844 C 248.527344 170.164062 247.515625 170.265625 246.488281 170.265625 C 245.464844 170.265625 244.449219 170.164062 243.445312 169.964844 C 242.441406 169.765625 241.464844 169.46875 240.519531 169.078125 C 239.570312 168.683594 238.671875 168.203125 237.820312 167.636719 C 236.96875 167.066406 236.179688 166.421875 235.453125 165.695312 C 234.730469 164.972656 234.082031 164.183594 233.515625 163.332031 C 232.945312 162.480469 232.464844 161.582031 232.074219 160.636719 C 231.679688 159.691406 231.382812 158.714844 231.183594 157.710938 C 230.984375 156.707031 230.882812 155.695312 230.882812 154.667969 C 230.882812 153.644531 230.984375 152.632812 231.183594 151.628906 C 231.382812 150.621094 231.679688 149.648438 232.074219 148.703125 C 232.464844 147.753906 232.945312 146.855469 233.515625 146.003906 C 234.082031 145.152344 234.730469 144.367188 235.453125 143.640625 C 236.179688 142.917969 236.96875 142.273438 237.820312 141.703125 C 238.671875 141.132812 239.570312 140.652344 240.519531 140.261719 C 241.464844 139.871094 242.441406 139.574219 243.445312 139.375 C 244.449219 139.175781 245.464844 139.074219 246.488281 139.074219 C 247.515625 139.074219 248.527344 139.175781 249.535156 139.375 C 250.539062 139.574219 251.515625 139.871094 252.460938 140.261719 C 253.40625 140.652344 254.308594 141.132812 255.160156 141.703125 C 256.011719 142.273438 256.800781 142.917969 257.523438 143.640625 C 258.25 144.367188 258.894531 145.152344 259.464844 146.003906 C 260.035156 146.855469 260.515625 147.753906 260.90625 148.703125 C 261.296875 149.648438 261.59375 150.621094 261.792969 151.628906 C 261.996094 152.632812 262.09375 153.644531 262.09375 154.667969 Z M 262.09375 154.667969 " fill-opacity="1" fill-rule="nonzero"/><path fill="#5ce1e6" d="M 316.9375 137.710938 C 316.921875 136.917969 316.898438 136.128906 316.867188 135.339844 C 314.710938 81.714844 266.433594 43.121094 217.714844 34.519531 C 150.863281 22.71875 62.082031 66.871094 77.628906 145.582031 C 85.957031 187.722656 115.839844 225.921875 158.15625 237.625 C 169.824219 240.847656 183.003906 242.929688 195.128906 242.929688 C 220.492188 242.929688 240.503906 229.75 263.828125 246.585938 C 270.648438 251.511719 277.707031 268.792969 288.527344 264.984375 C 296.4375 262.199219 298.09375 246.179688 298.628906 239.5 C 301.382812 205.210938 317.546875 172.230469 316.9375 137.710938 Z M 316.9375 137.710938 " fill-opacity="1" fill-rule="nonzero"/><path fill="#d9d9d9" d="M 154.777344 138.230469 C 154.777344 139.253906 154.675781 140.269531 154.476562 141.273438 C 154.277344 142.277344 153.980469 143.25 153.589844 144.199219 C 153.195312 145.144531 152.714844 146.042969 152.144531 146.894531 C 151.578125 147.746094 150.929688 148.53125 150.207031 149.257812 C 149.480469 149.980469 148.691406 150.628906 147.839844 151.195312 C 146.988281 151.765625 146.089844 152.246094 145.144531 152.636719 C 144.195312 153.027344 143.21875 153.324219 142.214844 153.523438 C 141.210938 153.722656 140.195312 153.824219 139.171875 153.824219 C 138.148438 153.824219 137.132812 153.722656 136.125 153.523438 C 135.121094 153.324219 134.144531 153.027344 133.199219 152.636719 C 132.253906 152.246094 131.355469 151.765625 130.5 151.195312 C 129.648438 150.628906 128.863281 149.980469 128.136719 149.257812 C 127.414062 148.53125 126.765625 147.746094 126.195312 146.894531 C 125.628906 146.042969 125.144531 145.144531 124.753906 144.199219 C 124.363281 143.25 124.066406 142.277344 123.867188 141.273438 C 123.667969 140.269531 123.566406 139.253906 123.566406 138.230469 C 123.566406 137.207031 123.667969 136.191406 123.867188 135.1875 C 124.066406 134.183594 124.363281 133.207031 124.753906 132.261719 C 125.144531 131.316406 125.628906 130.417969 126.195312 129.566406 C 126.765625 128.714844 127.414062 127.925781 128.136719 127.203125 C 128.863281 126.476562 129.648438 125.832031 130.5 125.261719 C 131.355469 124.695312 132.253906 124.214844 133.199219 123.820312 C 134.144531 123.429688 135.121094 123.132812 136.125 122.933594 C 137.132812 122.734375 138.148438 122.632812 139.171875 122.632812 C 140.195312 122.632812 141.210938 122.734375 142.214844 122.933594 C 143.21875 123.132812 144.195312 123.429688 145.144531 123.820312 C 146.089844 124.214844 146.988281 124.695312 147.839844 125.261719 C 148.691406 125.832031 149.480469 126.476562 150.207031 127.203125 C 150.929688 127.925781 151.578125 128.714844 152.144531 129.566406 C 152.714844 130.417969 153.195312 131.316406 153.589844 132.261719 C 153.980469 133.207031 154.277344 134.183594 154.476562 135.1875 C 154.675781 136.191406 154.777344 137.207031 154.777344 138.230469 Z M 154.777344 138.230469 " fill-opacity="1" fill-rule="nonzero"/><path fill="#d9d9d9" d="M 209.894531 138.230469 C 209.894531 139.253906 209.796875 140.269531 209.597656 141.273438 C 209.398438 142.277344 209.101562 143.25 208.707031 144.199219 C 208.316406 145.144531 207.835938 146.042969 207.265625 146.894531 C 206.695312 147.746094 206.050781 148.53125 205.324219 149.257812 C 204.601562 149.980469 203.8125 150.628906 202.960938 151.195312 C 202.109375 151.765625 201.210938 152.246094 200.261719 152.636719 C 199.316406 153.027344 198.339844 153.324219 197.335938 153.523438 C 196.332031 153.722656 195.316406 153.824219 194.292969 153.824219 C 193.265625 153.824219 192.253906 153.722656 191.246094 153.523438 C 190.242188 153.324219 189.265625 153.027344 188.320312 152.636719 C 187.371094 152.246094 186.472656 151.765625 185.621094 151.195312 C 184.769531 150.628906 183.980469 149.980469 183.257812 149.257812 C 182.53125 148.53125 181.886719 147.746094 181.316406 146.894531 C 180.746094 146.042969 180.265625 145.144531 179.875 144.199219 C 179.480469 143.25 179.1875 142.277344 178.988281 141.273438 C 178.785156 140.269531 178.6875 139.253906 178.6875 138.230469 C 178.6875 137.207031 178.785156 136.191406 178.988281 135.1875 C 179.1875 134.183594 179.480469 133.207031 179.875 132.261719 C 180.265625 131.316406 180.746094 130.417969 181.316406 129.566406 C 181.886719 128.714844 182.53125 127.925781 183.257812 127.203125 C 183.980469 126.476562 184.769531 125.832031 185.621094 125.261719 C 186.472656 124.695312 187.371094 124.214844 188.320312 123.820312 C 189.265625 123.429688 190.242188 123.132812 191.246094 122.933594 C 192.253906 122.734375 193.265625 122.632812 194.292969 122.632812 C 195.316406 122.632812 196.332031 122.734375 197.335938 122.933594 C 198.339844 123.132812 199.316406 123.429688 200.261719 123.820312 C 201.210938 124.214844 202.109375 124.695312 202.960938 125.261719 C 203.8125 125.832031 204.601562 126.476562 205.324219 127.203125 C 206.050781 127.925781 206.695312 128.714844 207.265625 129.566406 C 207.835938 130.417969 208.316406 131.316406 208.707031 132.261719 C 209.101562 133.207031 209.398438 134.183594 209.597656 135.1875 C 209.796875 136.191406 209.894531 137.207031 209.894531 138.230469 Z M 209.894531 138.230469 " fill-opacity="1" fill-rule="nonzero"/><path fill="#d9d9d9" d="M 262.09375 138.230469 C 262.09375 139.253906 261.996094 140.269531 261.792969 141.273438 C 261.59375 142.277344 261.296875 143.25 260.90625 144.199219 C 260.515625 145.144531 260.035156 146.042969 259.464844 146.894531 C 258.894531 147.746094 258.25 148.53125 257.523438 149.257812 C 256.800781 149.980469 256.011719 150.628906 255.160156 151.195312 C 254.308594 151.765625 253.40625 152.246094 252.460938 152.636719 C 251.515625 153.027344 250.539062 153.324219 249.535156 153.523438 C 248.527344 153.722656 247.515625 153.824219 246.488281 153.824219 C 245.464844 153.824219 244.449219 153.722656 243.445312 153.523438 C 242.441406 153.324219 241.464844 153.027344 240.519531 152.636719 C 239.570312 152.246094 238.671875 151.765625 237.820312 151.195312 C 236.96875 150.628906 236.179688 149.980469 235.453125 149.257812 C 234.730469 148.53125 234.082031 147.746094 233.515625 146.894531 C 232.945312 146.042969 232.464844 145.144531 232.074219 144.199219 C 231.679688 143.25 231.382812 142.277344 231.183594 141.273438 C 230.984375 140.269531 230.882812 139.253906 230.882812 138.230469 C 230.882812 137.207031 230.984375 136.191406 231.183594 135.1875 C 231.382812 134.183594 231.679688 133.207031 232.074219 132.261719 C 232.464844 131.316406 232.945312 130.417969 233.515625 129.566406 C 234.082031 128.714844 234.730469 127.925781 235.453125 127.203125 C 236.179688 126.476562 236.96875 125.832031 237.820312 125.261719 C 238.671875 124.695312 239.570312 124.214844 240.519531 123.820312 C 241.464844 123.429688 242.441406 123.132812 243.445312 122.933594 C 244.449219 122.734375 245.464844 122.632812 246.488281 122.632812 C 247.515625 122.632812 248.527344 122.734375 249.535156 122.933594 C 250.539062 123.132812 251.515625 123.429688 252.460938 123.820312 C 253.40625 124.214844 254.308594 124.695312 255.160156 125.261719 C 256.011719 125.832031 256.800781 126.476562 257.523438 127.203125 C 258.25 127.925781 258.894531 128.714844 259.464844 129.566406 C 260.035156 130.417969 260.515625 131.316406 260.90625 132.261719 C 261.296875 133.207031 261.59375 134.183594 261.792969 135.1875 C 261.996094 136.191406 262.09375 137.207031 262.09375 138.230469 Z M 262.09375 138.230469 " fill-opacity="1" fill-rule="nonzero"/><g clip-path="url(#376c720369)"><g clip-path="url(#f85ad472bc)"><path fill="#ffffff" d="M 124.609375 112.855469 L 157.488281 112.855469 L 157.488281 145.734375 L 124.609375 145.734375 Z M 124.609375 112.855469 " fill-opacity="1" fill-rule="nonzero"/></g></g><g clip-path="url(#6eb3dcc52d)"><g clip-path="url(#f5b25c0bc9)"><path fill="#ffffff" d="M 230.722656 112.855469 L 263.601562 112.855469 L 263.601562 145.734375 L 230.722656 145.734375 Z M 230.722656 112.855469 " fill-opacity="1" fill-rule="nonzero"/></g></g><g clip-path="url(#6d8d201c7b)"><g clip-path="url(#9fe082b333)"><path fill="#ffffff" d="M 177.5625 112.855469 L 210.445312 112.855469 L 210.445312 145.734375 L 177.5625 145.734375 Z M 177.5625 112.855469 " fill-opacity="1" fill-rule="nonzero"/></g></g></svg>