<svg xmlns="http://www.w3.org/2000/svg" xmlns:xlink="http://www.w3.org/1999/xlink" width="506" zoomAndPan="magnify" viewBox="0 0 379.5 308.250004" height="411" preserveAspectRatio="xMidYMid meet" version="1.0"><defs><clipPath id="42ed86c763"><path d="M 99.613281 91.097656 L 298.472656 91.097656 L 298.472656 254.65625 L 99.613281 254.65625 Z M 99.613281 91.097656 " clip-rule="nonzero"/></clipPath><clipPath id="38c805145c"><path d="M 297.675781 121.449219 C 290.773438 65.265625 239.566406 25.320312 183.296875 32.207031 C 149.964844 36.292969 122.34375 55.886719 106.796875 82.863281 C 83.769531 98.027344 68.5625 124.054688 68.5625 153.648438 C 68.5625 175.359375 76.8125 195.101562 90.265625 210.097656 L 83.136719 254.632812 L 127.070312 234.15625 C 135.378906 236.875 144.226562 238.386719 153.441406 238.386719 C 161.90625 238.386719 170.078125 237.136719 177.792969 234.832031 C 187.613281 236.566406 197.863281 236.910156 208.285156 235.640625 C 219.34375 234.28125 229.75 231.164062 239.316406 226.695312 L 293.355469 242.328125 L 279.949219 192.394531 C 293.886719 172.421875 300.878906 147.511719 297.675781 121.449219 Z M 297.675781 121.449219 " clip-rule="nonzero"/></clipPath><clipPath id="9ffbd2a3cb"><path d="M 68.554688 86 L 239 86 L 239 272 L 68.554688 272 Z M 68.554688 86 " clip-rule="nonzero"/></clipPath></defs><path fill="#8c52ff" d="M 285.113281 197.554688 C 299.050781 177.578125 306.042969 152.667969 302.839844 126.605469 C 295.9375 70.433594 244.730469 30.476562 188.460938 37.363281 C 132.191406 44.257812 92.179688 95.378906 99.082031 151.554688 C 105.980469 207.730469 157.1875 247.683594 213.449219 240.789062 C 224.511719 239.429688 234.910156 236.320312 244.484375 231.851562 L 298.519531 247.484375 L 285.113281 197.554688 " fill-opacity="1" fill-rule="nonzero"/><path fill="#cb6ce6" d="M 279.949219 192.398438 C 293.886719 172.421875 300.878906 147.511719 297.675781 121.445312 C 290.773438 65.269531 239.566406 25.320312 183.296875 32.207031 C 127.023438 39.101562 87.011719 90.21875 93.914062 146.402344 C 100.816406 202.582031 152.023438 242.523438 208.285156 235.640625 C 219.34375 234.28125 229.75 231.164062 239.316406 226.695312 L 293.351562 242.328125 L 279.949219 192.398438 " fill-opacity="1" fill-rule="nonzero"/><g clip-path="url(#42ed86c763)"><g clip-path="url(#38c805145c)"><path fill="#8c52ff" d="M 356.242188 210.058594 L 271.101562 315.316406 L 99.695312 196.453125 L 184.835938 91.1875 L 356.242188 210.058594 " fill-opacity="1" fill-rule="nonzero"/></g></g><path fill="#529baa" d="M 158.605469 91.257812 C 111.734375 91.257812 73.726562 129.199219 73.726562 175.992188 C 73.726562 197.707031 81.976562 217.445312 95.425781 232.441406 L 81.414062 276.976562 L 132.234375 256.507812 C 140.546875 259.21875 149.394531 260.738281 158.605469 260.738281 C 205.480469 260.738281 243.476562 222.789062 243.476562 175.992188 C 243.476562 129.199219 205.480469 91.257812 158.605469 91.257812 " fill-opacity="1" fill-rule="nonzero"/><g clip-path="url(#9ffbd2a3cb)"><path fill="#60c0c6" d="M 153.441406 86.097656 C 106.566406 86.097656 68.558594 124.042969 68.558594 170.835938 C 68.558594 192.546875 76.8125 212.296875 90.265625 227.285156 L 83.136719 271.820312 L 127.070312 251.34375 C 135.378906 254.0625 144.226562 255.574219 153.441406 255.574219 C 200.320312 255.574219 238.3125 217.636719 238.3125 170.835938 C 238.3125 124.042969 200.320312 86.097656 153.441406 86.097656 " fill-opacity="1" fill-rule="nonzero"/></g><path fill="#529baa" d="M 123.625 172.683594 C 123.625 180.976562 116.882812 187.714844 108.5625 187.714844 C 100.246094 187.714844 93.503906 180.976562 93.503906 172.683594 C 93.503906 164.375 100.246094 157.640625 108.5625 157.640625 C 116.882812 157.640625 123.625 164.375 123.625 172.683594 " fill-opacity="1" fill-rule="nonzero"/><path fill="#529baa" d="M 172.5625 172.683594 C 172.5625 180.976562 165.820312 187.714844 157.507812 187.714844 C 149.1875 187.714844 142.445312 180.976562 142.445312 172.683594 C 142.445312 164.375 149.1875 157.640625 157.507812 157.640625 C 165.820312 157.640625 172.5625 164.375 172.5625 172.683594 " fill-opacity="1" fill-rule="nonzero"/><path fill="#529baa" d="M 221.507812 172.683594 C 221.507812 180.976562 214.765625 187.714844 206.457031 187.714844 C 198.136719 187.714844 191.390625 180.976562 191.390625 172.683594 C 191.390625 164.375 198.136719 157.640625 206.457031 157.640625 C 214.765625 157.640625 221.507812 164.375 221.507812 172.683594 " fill-opacity="1" fill-rule="nonzero"/><path fill="#e9e9e7" d="M 118.457031 167.527344 C 118.457031 175.828125 111.71875 182.558594 103.394531 182.558594 C 95.085938 182.558594 88.339844 175.828125 88.339844 167.527344 C 88.339844 159.21875 95.085938 152.488281 103.394531 152.488281 C 111.71875 152.488281 118.457031 159.21875 118.457031 167.527344 " fill-opacity="1" fill-rule="nonzero"/><path fill="#e9e9e7" d="M 167.398438 167.527344 C 167.398438 175.828125 160.65625 182.558594 152.339844 182.558594 C 144.023438 182.558594 137.28125 175.828125 137.28125 167.527344 C 137.28125 159.21875 144.023438 152.488281 152.339844 152.488281 C 160.65625 152.488281 167.398438 159.21875 167.398438 167.527344 " fill-opacity="1" fill-rule="nonzero"/><path fill="#e9e9e7" d="M 216.347656 167.527344 C 216.347656 175.828125 209.597656 182.558594 201.289062 182.558594 C 192.972656 182.558594 186.222656 175.828125 186.222656 167.527344 C 186.222656 159.21875 192.972656 152.488281 201.289062 152.488281 C 209.597656 152.488281 216.347656 159.21875 216.347656 167.527344 " fill-opacity="1" fill-rule="nonzero"/></svg>